<?xml version="1.0" encoding="UTF-8"?>
<svg width="196px" height="275px" viewBox="0 0 196 275" version="1.1" xmlns="http://www.w3.org/2000/svg" xmlns:xlink="http://www.w3.org/1999/xlink">
    <!-- Generator: Sketch 63.1 (92452) - https://sketch.com -->
    <title>Group 89</title>
    <desc>Created with Sketch.</desc>
    <defs>
        <polygon id="path-1" points="0 0.0264164402 29.3209783 0.0264164402 29.3209783 30.371695 0 30.371695"></polygon>
        <polygon id="path-3" points="0.0919692737 0.120686141 6.12756793 0.120686141 6.12756793 34.2618988 0.0919692737 34.2618988"></polygon>
    </defs>
    <g id="Page-1" stroke="none" stroke-width="1" fill="none" fill-rule="evenodd">
        <g id="Artboard" transform="translate(-306.000000, -79.000000)">
            <g id="Group-89" transform="translate(306.000000, 79.000000)">
                <g id="Group-3" transform="translate(0.000000, 209.118444)">
                    <mask id="mask-2" fill="white">
                        <use xlink:href="#path-1"></use>
                    </mask>
                    <g id="Clip-2"></g>
                    <path d="M19.0779755,10.6535224 C19.0779755,7.83664062 16.645197,6.34282269 12.3770924,6.34282269 L9.34686141,6.34282269 L9.34686141,16.0739368 C14.0416644,15.9031827 19.0779755,15.0923811 19.0779755,10.6535224 L19.0779755,10.6535224 Z M13.0171399,0.0264164402 C22.8338179,0.0264164402 27.0589538,4.33711617 27.0589538,10.3120143 C27.0589538,15.0923811 24.8395245,17.823699 21.5959443,19.445676 L22.0656114,20.2138825 C24.5409851,24.1404789 26.9737636,27.9389164 29.3209783,28.4511787 L29.3209783,28.6645279 C27.9979144,29.7742425 26.1625883,30.371695 24.3276359,30.371695 C20.3158492,30.371695 17.9682609,29.0915999 15.4499185,25.0368444 L13.187894,21.4513825 C11.9077989,21.5795414 10.6273302,21.6221365 9.34686141,21.6651053 C9.38945652,25.3353838 9.73096467,28.4085836 11.0114334,29.6886787 L11.0114334,29.9024015 L-0.000149456522,29.9024015 L-0.000149456522,29.6886787 C1.36588315,28.2804246 1.66442255,24.8660904 1.66442255,20.7687398 L1.66442255,9.15970448 C1.66442255,5.10494905 1.36588315,1.6480197 -0.000149456522,0.239765625 L-0.000149456522,0.0264164402 L13.0171399,0.0264164402 Z" id="Fill-1" fill="#FFFFFF" mask="url(#mask-2)"></path>
                </g>
                <path d="M41.102748,209.144711 L41.102748,209.35806 C39.737089,210.766688 39.438176,214.223618 39.438176,218.277999 L39.438176,226.68605 C39.438176,230.441892 41.7002004,232.490567 44.9867493,232.533536 C48.2729246,232.490567 50.534949,230.441892 50.534949,226.68605 L50.534949,218.277999 C50.534949,214.223618 50.2790048,210.766688 48.870377,209.35806 L48.870377,209.144711 L59.8819599,209.144711 L59.8819599,209.35806 C58.5159273,210.766688 58.2173879,214.223618 58.2173879,218.277999 L58.2173879,226.68605 C58.2173879,234.581838 54.1200374,239.490363 44.9867493,239.490363 C35.8530876,239.490363 31.7557371,234.581838 31.7557371,226.68605 L31.7557371,218.277999 C31.7557371,214.223618 31.4571977,210.766688 30.0911651,209.35806 L30.0911651,209.144711 L41.102748,209.144711 Z" id="Fill-4" fill="#FFFFFF"></path>
                <path d="M71.7912908,227.070377 L71.7912908,232.575982 C73.2425136,232.661546 74.5229823,232.704141 75.5901019,232.704141 C77.8947215,232.704141 81.693159,232.448196 81.693159,229.503156 C81.693159,227.710425 79.772269,226.259202 78.1080707,226.259202 C76.0593954,226.728869 73.9255299,226.984813 71.7912908,227.070377 L71.7912908,227.070377 Z M80.2845313,217.936715 C80.2845313,216.357707 78.7055231,215.461342 75.2059986,215.461342 C74.096284,215.461342 72.8584103,215.546532 71.7912908,215.674691 L71.7912908,221.564772 C77.5532133,221.564772 80.2845313,220.412463 80.2845313,217.936715 L80.2845313,217.936715 Z M62.4442799,239.020547 L62.4442799,238.807198 C63.8103125,237.398944 64.1088519,233.984609 64.1088519,229.887259 L64.1088519,218.278224 C64.1088519,214.223468 63.8103125,210.766539 62.4442799,209.358285 L62.4442799,209.144562 L75.5901019,209.144562 C81.6505639,209.144562 88.1803193,209.998332 88.1803193,216.869596 C88.1803193,219.857232 86.7720652,222.119256 84.4248505,223.741233 C87.1987636,224.637599 89.6741372,227.198536 89.6741372,230.655465 C89.6741372,236.417388 85.4915965,239.020547 80.2419361,239.020547 L62.4442799,239.020547 Z" id="Fill-6" fill="#FFFFFF"></path>
                <path d="M112.040231,227.070377 L112.040231,232.575982 C113.491454,232.661546 114.771923,232.704141 115.838668,232.704141 C118.143288,232.704141 121.942099,232.448196 121.942099,229.503156 C121.942099,227.710425 120.021209,226.259202 118.356637,226.259202 C116.308336,226.728869 114.174096,226.984813 112.040231,227.070377 L112.040231,227.070377 Z M120.533471,217.936715 C120.533471,216.357707 118.954463,215.461342 115.454565,215.461342 C114.344851,215.461342 113.106977,215.546532 112.040231,215.674691 L112.040231,221.564772 C117.802154,221.564772 120.533471,220.412463 120.533471,217.936715 L120.533471,217.936715 Z M102.69322,239.020547 L102.69322,238.807198 C104.059253,237.398944 104.357418,233.984609 104.357418,229.887259 L104.357418,218.278224 C104.357418,214.223468 104.059253,210.766539 102.69322,209.358285 L102.69322,209.144562 L115.838668,209.144562 C121.899504,209.144562 128.42926,209.998332 128.42926,216.869596 C128.42926,219.857232 127.021005,222.119256 124.673791,223.741233 C127.447704,224.637599 129.923077,227.198536 129.923077,230.655465 C129.923077,236.417388 125.740537,239.020547 120.490876,239.020547 L102.69322,239.020547 Z" id="Fill-8" fill="#FFFFFF"></path>
                <path d="M142.045346,227.070377 L142.045346,232.575982 C143.496569,232.661546 144.777038,232.704141 145.844158,232.704141 C148.148777,232.704141 151.947215,232.448196 151.947215,229.503156 C151.947215,227.710425 150.026325,226.259202 148.362126,226.259202 C146.313451,226.728869 144.179586,226.984813 142.045346,227.070377 L142.045346,227.070377 Z M150.538587,217.936715 C150.538587,216.357707 148.959579,215.461342 145.460054,215.461342 C144.35034,215.461342 143.112466,215.546532 142.045346,215.674691 L142.045346,221.564772 C147.807269,221.564772 150.538587,220.412463 150.538587,217.936715 L150.538587,217.936715 Z M132.698336,239.020547 L132.698336,238.807198 C134.064368,237.398944 134.362908,233.984609 134.362908,229.887259 L134.362908,218.278224 C134.362908,214.223468 134.064368,210.766539 132.698336,209.358285 L132.698336,209.144562 L145.844158,209.144562 C151.90462,209.144562 158.434375,209.998332 158.434375,216.869596 C158.434375,219.857232 157.026121,222.119256 154.678906,223.741233 C157.452819,224.637599 159.928193,227.198536 159.928193,230.655465 C159.928193,236.417388 155.745652,239.020547 150.495992,239.020547 L132.698336,239.020547 Z" id="Fill-10" fill="#FFFFFF"></path>
                <path d="M178.708899,233.04535 L179.263757,233.04535 C184.129314,233.04535 187.245109,229.417666 187.287704,224.082816 C187.245109,218.79056 184.129314,215.119535 179.263757,215.119535 L178.708899,215.119535 C173.800747,215.119535 170.684952,218.79056 170.642357,224.082816 C170.684952,229.417666 173.800747,233.04535 178.708899,233.04535 L178.708899,233.04535 Z M195.226087,224.210601 C195.226087,230.698135 192.494769,234.96624 188.397418,237.313454 C190.274966,239.831423 192.4518,242.093821 194.457507,242.989813 C193.006658,243.971369 191.043546,244.312877 188.994497,244.312877 C185.494973,244.312877 182.592901,242.776464 180.288281,239.490289 L179.263757,239.490289 L178.708899,239.490289 C170.001936,239.490289 162.703974,234.795486 162.703974,224.210601 L162.703974,223.997252 C162.703974,213.370146 170.001936,208.674969 178.708899,208.674969 L179.263757,208.674969 C187.927751,208.674969 195.226087,213.370146 195.226087,223.997252 L195.226087,224.210601 Z" id="Fill-12" fill="#FFFFFF"></path>
                <path d="M21.1725713,241.081926 C16.2449898,241.081926 10.4105808,246.916335 10.4337466,251.518849 C10.4337466,254.377952 12.6882982,255.586308 14.896892,256.771872 C17.0815727,257.957435 19.2199219,259.096294 19.2199219,261.769324 C19.2199219,266.232469 13.1998132,270.671702 7.55147758,270.671702 C3.85579144,270.671702 1.60086617,268.789297 1.60086617,266.069562 C1.60086617,264.047415 2.83313519,261.095275 3.62338655,261.095275 C3.78592052,261.095275 4.11136209,261.235017 4.11136209,261.560459 C4.11136209,261.629956 4.08819633,261.816029 3.92528872,262.257673 C3.66971807,262.954888 3.4836447,263.698808 3.4836447,264.489059 C3.4836447,266.069562 4.18085938,266.906518 5.59882813,266.906518 C9.75969769,266.906518 15.4543648,263.257164 15.4543648,260.653631 C15.4543648,259.165791 13.6414572,258.21338 11.5726053,257.167184 C8.85324389,255.772381 5.66869905,254.168339 5.66869905,250.728224 C5.66869905,245.568237 12.8975374,237.851423 18.2671365,237.851423 C21.4516814,237.851423 24.1011719,240.617116 24.1011719,243.964569 C24.1011719,247.451016 21.2887738,253.145683 18.5694124,253.145683 C17.4533458,253.145683 14.1993037,252.192524 14.1993037,251.635051 C14.1993037,251.495309 14.3386719,251.402646 14.6644871,251.402646 C17.3371433,251.402646 21.1725713,245.126593 21.1725713,241.081926" id="Fill-14" fill="#FFFFFF"></path>
                <path d="M42.8352106,250.077789 C43.5791304,250.077789 46.9030435,251.588421 46.9030435,252.587911 C46.9030435,252.79715 46.7405095,253.006389 46.5544361,253.006389 C45.4387432,253.006389 42.2541984,260.490798 42.2541984,263.187368 C42.2541984,263.419772 42.2777378,263.559141 42.3240693,263.559141 C42.6495109,263.559141 48.9255639,254.772965 49.4834103,253.842972 C49.7621467,253.401702 50.180625,253.075887 50.5759375,253.075887 C50.8778397,253.075887 51.1565761,253.285499 51.1334103,253.517904 C51.0635394,254.540187 43.3235598,265.697863 42.4398981,265.697863 C40.0459783,265.697863 37.6983899,264.349392 37.6983899,263.163828 C37.6983899,260.955982 39.0928193,256.95802 40.3714198,254.331321 C37.3497826,258.166376 34.2814402,263.443312 34.2814402,264.953944 C34.2814402,265.372422 34.0722011,265.697863 33.8166304,265.697863 C31.3991712,265.697863 29.0747486,264.349392 29.0747486,263.163828 C29.0747486,260.955982 30.4463859,256.95802 31.7246128,254.331321 C28.6099389,258.213081 25.3790625,263.605846 25.3790625,265.209514 C25.3790625,265.581287 25.2161549,265.697863 24.9605842,265.697863 C24.100462,265.697863 20.7533832,264.3266 20.7533832,262.745724 C20.7533832,261.025853 24.7050136,250.077789 25.8902038,250.077789 C26.9595652,250.077789 30.0510734,251.170316 30.0510734,252.030438 C30.0510734,252.192599 29.9580367,252.309175 29.8418342,252.309175 C29.2839878,252.309175 27.6567799,255.725751 26.4947554,259.026498 C28.9585462,254.865628 32.8171399,250.077789 34.1652378,250.077789 C34.9554891,250.077789 38.2330707,251.588421 38.2330707,252.587911 C38.2330707,252.79715 38.0937024,253.006389 37.9076291,253.006389 C37.0011753,253.006389 34.9323234,257.818142 34.0722011,261.397626 C36.2572554,256.864983 41.2315421,250.077789 42.8352106,250.077789" id="Fill-16" fill="#FFFFFF"></path>
                <path d="M56.7343682,253.262109 C56.4320924,253.262109 56.1765217,253.564385 56.1765217,254.052361 C56.1765217,254.680078 56.6177921,255.191219 57.3385462,255.493495 C57.3620856,255.26109 57.3620856,255.051851 57.3620856,254.842612 C57.3620856,253.773251 57.0833492,253.262109 56.7343682,253.262109 M52.1322283,263.721824 C53.8984307,263.721824 56.2927242,260.119175 57.1061413,256.865132 C55.6653804,256.399949 54.5956454,255.330588 54.4331114,254.075526 C52.6433696,255.935139 51.1555299,259.398421 51.1555299,261.978787 C51.1555299,263.396382 51.5975476,263.721824 52.1322283,263.721824 M51.0860326,265.697639 C48.6685734,265.697639 46.6464266,263.303719 46.6464266,260.351579 C46.6464266,256.028176 51.0161617,249.844786 54.0613383,249.844786 C56.5019633,249.844786 59.4309375,251.472368 59.4309375,252.866797 C59.4309375,253.33198 59.1054959,253.610717 58.873091,253.610717 C58.8032201,253.610717 58.7333492,253.587551 58.6870177,253.564385 C58.7800543,253.982863 58.8263859,254.494005 58.8263859,255.051851 C58.8263859,255.284256 58.8263859,255.516661 58.8032201,255.749066 C60.685625,255.749066 62.4290353,254.656539 63.1497894,253.099202 C63.4053601,252.541355 63.6609307,252.378821 63.916875,252.378821 C64.2423166,252.378821 64.4511821,252.657931 64.4511821,253.169073 C64.4511821,255.051851 61.3832133,257.120703 58.6171467,257.120703 C57.7338587,261.443733 54.2937432,265.697639 51.0860326,265.697639" id="Fill-18" fill="#FFFFFF"></path>
                <path d="M66.9609681,258.561688 C68.3789368,258.561688 70.9824694,254.191953 70.9824694,252.634616 C70.9824694,252.51804 70.9824694,252.448543 70.95893,252.448543 C69.4946298,254.029046 67.8442561,256.237266 66.4729925,258.398781 C66.6123607,258.491817 66.7984341,258.561688 66.9609681,258.561688 M78.7228227,253.703604 C79.0019327,253.215255 79.4432031,252.890187 79.8385156,252.890187 C80.1404178,252.890187 80.3963621,253.099426 80.3963621,253.331831 C80.3033254,254.354487 72.5398064,265.697863 71.7028499,265.697863 C68.7974151,265.697863 65.8919803,263.001294 65.4036311,260.095859 C64.078699,262.350785 63.1722452,264.3266 63.1722452,265.209514 C63.1722452,265.581287 63.0097113,265.697863 62.753767,265.697863 C61.9171841,265.697863 58.9418784,264.30306 58.9418784,262.885092 C58.9418784,260.63054 66.3104586,241.593516 68.076661,241.593516 C69.4482982,241.593516 72.1217018,242.872116 72.1217018,243.476294 C72.1217018,243.639202 71.9352548,243.824901 71.7958865,243.824901 C70.7963961,243.824901 66.7285632,252.587911 64.4041406,258.724596 C66.8447656,254.633224 70.5408254,250.077789 72.0286651,250.077789 C72.9347452,250.077789 75.7706827,251.79766 75.7706827,252.471709 C75.7706827,254.633224 72.26107,260.235228 69.5645007,260.235228 C69.5645007,261.769399 70.4713281,263.559141 71.5866474,263.559141 C71.912089,263.559141 78.1646026,254.586892 78.7228227,253.703604" id="Fill-20" fill="#FFFFFF"></path>
                <path d="M83.1151257,259.630825 C82.1855061,259.630825 80.8138689,258.956776 80.8138689,258.654874 C80.8138689,258.561838 80.9764029,258.491967 81.2786787,258.491967 C82.7896841,258.491967 85.7649898,256.516151 86.1834681,253.657422 C83.6498064,253.936158 80.0236175,258.352599 80.0236175,261.560309 C80.0236175,262.908407 80.6745007,263.721824 81.7206963,263.721824 C85.2071433,263.721824 90.9948471,254.773115 91.6692697,253.494514 C91.9244667,253.029704 92.180411,252.7973 92.4359817,252.7973 C92.8077548,252.7973 93.1100306,253.192612 93.1100306,253.657422 C93.1100306,253.866287 93.0401596,254.098692 92.9706624,254.23806 C92.7147181,254.749949 86.4390387,265.697639 81.023108,265.697639 C78.4431148,265.697639 75.7233798,263.187517 75.7233798,259.956267 C75.7233798,255.772605 80.3258933,250.077938 84.0447452,250.077938 C86.1135971,250.077938 88.4843512,251.844141 88.4843512,253.726919 C88.4843512,256.93463 84.9284069,259.630825 83.1151257,259.630825" id="Fill-22" fill="#FFFFFF"></path>
                <path d="M99.4312942,252.332378 C96.1540863,252.634654 92.7135971,258.25945 92.7135971,264.303098 C94.5732099,263.88462 97.0837058,258.003879 99.4312942,252.332378 M101.384317,265.697901 C98.9664844,265.697901 96.6420618,264.349429 96.6420618,263.163865 C96.6420618,262.699056 96.6883933,262.164375 96.78143,261.583736 C95.456498,263.931325 94.1084001,265.697901 92.8301732,265.697901 C91.5052412,265.697901 88.3206963,263.814749 88.3206963,262.815632 C88.3206963,256.632615 92.4348607,250.077826 96.0842154,250.077826 C97.2234477,250.077826 98.9664844,250.751875 99.8266067,251.356053 C101.94179,246.219232 103.871274,241.593553 104.986593,241.593553 C105.591145,241.593553 109.21696,243.034314 109.21696,243.894436 C109.21696,244.057344 109.101131,244.197086 108.938224,244.197086 C107.28785,244.197086 101.198244,260.258431 101.198244,263.233736 C101.198244,263.41981 101.22141,263.559178 101.267741,263.559178 C101.593183,263.559178 107.84607,254.586929 108.403916,253.703641 C108.682653,253.215292 109.124297,252.890224 109.519609,252.890224 C109.821885,252.890224 110.077082,253.099463 110.077082,253.331868 C109.984419,254.354524 102.2209,265.697901 101.384317,265.697901" id="Fill-24" fill="#FFFFFF"></path>
                <path d="M137.642656,258.352636 C138.339871,267.487418 142.128967,273.391698 147.242249,273.391698 C149.380971,273.391698 150.752609,272.345503 150.752609,270.765 C150.752609,270.11449 151.008179,269.76551 151.26375,269.76551 C151.566026,269.76551 151.867928,270.183988 151.867928,271.090442 C151.867928,273.414864 149.822615,274.879164 146.3825,274.879164 C139.060625,274.879164 133.319253,268.184633 132.808111,258.003655 C132.063818,257.817955 131.343811,257.538845 130.645849,257.190611 C128.879647,261.397439 127.368641,265.581474 127.368641,266.743872 C127.368641,266.953111 127.415346,267.06894 127.601046,267.06894 C127.78712,267.06894 127.903322,267.185516 127.903322,267.324885 C127.903322,267.626787 127.438139,268.091596 126.810795,268.091596 C125.439531,268.091596 123.533213,265.953621 123.533213,264.303247 C123.533213,261.095537 130.716094,243.359905 132.645204,243.359905 C134.388614,243.359905 136.457092,245.196352 136.457092,246.358376 C136.457092,246.707357 136.294558,246.962928 136.108859,246.962928 C135.434436,246.962928 133.412289,250.867853 131.505971,255.214796 C132.110523,255.354164 132.73824,255.40087 133.319253,255.40087 C139.060625,255.40087 146.405666,251.053927 146.405666,246.428247 C146.405666,243.034463 142.43087,240.570673 136.782534,240.570673 C129.135217,240.570673 121.604103,245.080149 121.604103,249.659124 C121.604103,251.472405 122.789667,252.913166 124.277133,252.913166 C124.881685,252.913166 125.207126,253.145571 125.207126,253.401515 C125.207126,253.703791 124.765482,254.029232 123.812323,254.029232 C121.302201,254.029232 119.442588,251.844178 119.442588,248.892412 C119.442588,242.755727 127.461678,236.642582 136.224687,236.642582 C143.872004,236.642582 149.171732,241.314219 149.171732,247.195333 C149.171732,253.238607 143.593268,257.701753 137.642656,258.352636" id="Fill-26" fill="#FFFFFF"></path>
                <path d="M151.820251,246.869704 C151.820251,244.940594 153.912269,241.593516 155.19087,241.593516 C156.074158,241.593516 158.561114,243.150853 158.561114,243.871607 C158.561114,244.034141 158.398207,244.21984 158.212133,244.21984 C157.37555,244.21984 155.864545,247.520588 155.864545,249.031593 C155.864545,249.310329 155.818213,249.496403 155.027962,249.496403 C153.145183,249.496403 151.820251,248.38071 151.820251,246.869704 M145.915971,262.908631 C145.915971,261.165221 149.774565,250.077789 150.843927,250.077789 C152.169232,250.077789 154.678981,251.588421 154.678981,252.51804 C154.678981,252.727653 154.539613,252.867021 154.446576,252.867021 C153.563662,252.867021 150.704558,262.164711 150.704558,263.30357 C150.704558,263.419772 150.727724,263.559141 150.774056,263.559141 C151.099497,263.559141 157.37555,254.72626 157.933397,253.82018 C158.212133,253.354997 158.630985,253.029555 159.025924,253.029555 C159.3282,253.029555 159.60731,253.238794 159.58377,253.471199 C159.514273,254.493855 151.727215,265.697863 150.890632,265.697863 C148.473173,265.697863 145.915971,264.349392 145.915971,262.908631" id="Fill-28" fill="#FFFFFF"></path>
                <path d="M166.76553,251.565031 C165.417432,252.51819 160.257072,260.583984 159.071508,263.489419 C162.744029,263.489419 166.76553,257.236906 166.76553,251.565031 M167.090971,243.824677 C166.254015,243.824677 161.303268,254.168563 158.978471,260.258543 C161.349599,255.935139 165.161488,250.077938 167.183635,250.077938 C168.369198,250.077938 170.949192,252.05338 170.949192,252.982999 C170.949192,258.817408 166.602622,265.697639 162.767568,265.697639 C161.488967,265.697639 159.583023,264.954093 158.769606,264.30321 C158.420625,265.349032 158.118349,265.697639 157.560503,265.697639 C156.25911,265.697639 153.981019,263.907897 153.981019,262.745873 C153.981019,260.63069 161.395931,241.593665 163.046304,241.593665 C164.115666,241.593665 167.300211,242.709358 167.300211,243.499609 C167.300211,243.662143 167.183635,243.824677 167.090971,243.824677" id="Fill-30" fill="#FFFFFF"></path>
                <path d="M176.317819,262.792167 C176.317819,262.489891 176.201617,262.141284 175.992751,261.745971 C175.550734,261.97875 175.132255,262.187989 174.760482,262.373689 C171.924545,263.745326 170.994925,264.884185 170.994925,265.535068 C170.994925,265.930007 171.320367,266.139246 171.785177,266.139246 C173.133648,266.139246 176.317819,264.279633 176.317819,262.792167 M180.060584,264.210136 C180.060584,266.557724 175.759973,269.184049 173.854029,269.184049 C172.319857,269.184049 169.76303,267.534049 169.76303,265.418865 C169.76303,264.024063 170.878723,262.420394 174.132765,260.956094 C174.435041,260.816352 174.807187,260.630652 175.178961,260.444579 C173.644789,258.724334 172.575428,256.748519 172.575428,255.60966 C172.575428,253.215367 177.108071,248.985 179.618567,248.985 C181.199069,248.985 183.825768,250.658539 183.825768,252.680686 C183.825768,253.378274 183.523492,253.633845 183.268295,253.633845 C183.082221,253.633845 182.919314,253.471311 182.919314,253.238906 C182.919314,252.843594 182.408173,252.518152 181.943363,252.518152 C180.455523,252.518152 176.852874,255.702697 176.852874,257.166997 C176.852874,257.631807 177.201107,258.329395 177.665917,259.119647 C181.106033,257.190537 185.197405,254.610543 186.591834,253.587514 C187.149681,253.14587 187.498662,252.982962 187.731067,252.982962 C188.009803,252.982962 188.312079,253.215367 188.312079,253.587514 C188.312079,253.936121 188.056135,254.284728 187.777398,254.493967 C186.522337,255.423587 182.129063,258.236359 178.433003,260.374708 C179.246793,261.745971 180.060584,263.18748 180.060584,264.210136" id="Fill-32" fill="#FFFFFF"></path>
                <path d="M85.5151359,76.3143308 C79.8249524,78.065214 91.6432269,86.1627683 100.616223,81.5669803 C109.589219,76.9708186 93.616053,99.0044463 107.404164,93.970377 C107.404164,93.970377 97.4828668,99.0773064 96.2390149,93.3852548 C94.3913587,84.9267629 98.727466,86.0917765 93.688913,86.0917765 C85.3727785,86.0917765 69.9070177,79.5261515 80.8498505,73.8359681 C80.8498505,73.8359681 83.6218954,72.9605265 87.8530095,70.4802955 C91.853587,68.134949 76.4726427,60.7775781 76.0048438,42.8965999 C76.0048438,42.8965999 63.6298438,69.0922181 75.6666984,87.9136515 C87.703553,106.735085 102.4168,100.652204 106.893397,99.7337942 C115.428859,97.982911 124.252398,75.8767969 109.808173,63.8395686 C95.3635734,51.8023404 86.8284851,17.87982 96.8955027,1.46575747 C96.8955027,1.46575747 91.2053193,39.8383458 113.090985,56.1795482 C134.976277,72.5207507 123.088879,108.269256 100.765679,108.925744 C80.2460462,109.529175 52.9788247,100.534507 73.4050476,41.0056012 L81.7249185,23.3532914 C81.7249185,23.3532914 74.9407133,43.925608 84.570197,56.8382779 C84.570197,56.8382779 95.7319837,67.5621569 92.2302174,71.5014572 C89.1648641,74.9497928 85.5151359,76.3143308 85.5151359,76.3143308" id="Fill-34" fill="#FFFFFF"></path>
                <path d="M63.3411311,69.5316576 C63.3411311,69.5316576 62.4656895,52.8986413 71.0011515,37.5789742 C71.0011515,37.5789742 58.5263893,48.0838995 63.3411311,69.5316576" id="Fill-36" fill="#FFFFFF"></path>
                <g id="Group-40" transform="translate(99.014946, 0.252955)">
                    <mask id="mask-4" fill="white">
                        <use xlink:href="#path-3"></use>
                    </mask>
                    <g id="Clip-39"></g>
                    <path d="M5.47108016,34.2618988 C5.47108016,34.2618988 -1.75103261,13.908536 6.12756793,0.120424592 C6.12756793,0.120424592 -7.00368207,11.7197452 5.47108016,34.2618988" id="Fill-38" fill="#FFFFFF" mask="url(#mask-4)"></path>
                </g>
                <path d="M46.6218037,190.414484 C46.6218037,190.414484 55.0885156,195.03269 65.8643308,187.72053 C76.6397724,180.408743 93.1883458,166.554124 93.1883458,166.554124 C93.1883458,166.554124 52.7790387,210.426712 46.6218037,190.414484" id="Fill-41" fill="#FFFFFF"></path>
                <path d="M55.9863383,140.641016 C55.9863383,140.641016 29.5601834,157.830757 28.0207812,160.140234 C26.4813791,162.448964 24.9419769,169.376274 28.2774728,173.99448 C28.2774728,173.99448 18.0146671,162.192646 28.7904823,155.008645 C39.5662976,147.825017 55.9863383,140.641016 55.9863383,140.641016" id="Fill-43" fill="#FFFFFF"></path>
                <path d="M92.6750747,120.372432 C92.6750747,120.372432 115.252724,108.570598 123.462745,109.340299 C131.672765,110.109626 136.290971,113.958132 136.290971,113.958132 C136.290971,113.958132 126.028539,110.109626 118.331529,111.649029 C110.634518,113.188431 94.7274864,121.911834 94.7274864,121.911834 L92.6750747,120.372432 Z" id="Fill-45" fill="#FFFFFF"></path>
                <path d="M129.620316,140.127969 C129.620316,140.127969 144.757646,130.891556 141.678842,121.398825 C141.678842,121.398825 145.527347,132.174266 140.652449,136.279463 C135.777925,140.38466 132.69912,141.924063 132.69912,141.924063 L129.620316,140.127969 Z" id="Fill-47" fill="#FFFFFF"></path>
                <path d="M101.013404,121.270404 C101.013404,121.270404 121.153791,111.392449 126.413166,112.803692 C131.672914,114.214935 135.264728,115.882497 135.649579,117.165207 C136.034429,118.448291 128.20926,113.316702 124.617446,115.882497 C121.025632,118.448291 128.59411,118.319759 127.567717,120.244012 C126.541698,122.168264 115.381033,116.395506 101.013404,121.270404" id="Fill-49" fill="#FFFFFF"></path>
                <path d="M138.72857,114.214823 C138.72857,114.214823 144.500954,110.879327 147.4516,112.547262 C150.402245,114.214823 151.813488,118.063329 151.684956,120.500591 C151.556797,122.937853 144.885805,125.888499 144.885805,125.888499 C144.885805,125.888499 150.402245,121.398825 149.632544,119.346039 C148.862843,117.293628 148.34946,111.00786 138.72857,114.214823" id="Fill-51" fill="#FFFFFF"></path>
                <path d="M31.8051325,169.825166 C31.8051325,169.825166 31.6127072,160.011478 37.3854654,159.24215 C43.1582235,158.472075 58.7442969,158.087225 60.4761243,160.588753 C62.2079518,163.090656 66.2488825,178.291878 64.517055,181.947585 C62.7852276,185.603665 58.5518716,188.490418 53.9340387,188.297619 C49.3158322,188.105567 67.0185836,190.799521 67.4034341,179.831281 C67.7882846,168.86304 66.0564572,158.664874 61.8231012,157.702748 C57.5897452,156.740248 39.8869939,155.58607 36.0384885,157.125472 C32.189983,158.664874 30.2657303,164.630058 31.8051325,169.825166" id="Fill-53" fill="#FFFFFF"></path>
                <path d="M38.155017,167.708488 C38.155017,167.708488 22.7613689,181.755533 21.6064436,183.679786 C20.4522656,185.604039 20.4522656,193.685526 24.3003974,195.225302 C28.1489029,196.764704 37.1928906,196.187429 40.8489708,193.300676 C44.505051,190.414671 53.5490387,181.755533 53.5490387,181.755533 C53.5490387,181.755533 55.2808662,169.825166 45.274752,167.516063 C45.274752,167.516063 53.1641882,165.976661 55.0884409,173.866097 C57.0126936,181.755533 55.4732914,182.525234 53.3566135,184.257062 C51.2399355,185.988889 41.8110971,195.225302 41.0413961,195.417354 C40.271695,195.610153 32.9595346,202.344664 22.7613689,197.726831 C22.7613689,197.726831 13.5249558,190.222245 19.297714,183.10251 C25.0700985,175.982775 38.155017,167.708488 38.155017,167.708488" id="Fill-55" fill="#FFFFFF"></path>
                <path d="M26.0965285,182.33266 C26.0965285,182.33266 34.050231,178.869005 37.3853533,181.81965 C40.7208492,184.769922 39.181447,189.516661 39.181447,189.516661 C39.181447,189.516661 42.6451019,184.513604 39.6944565,180.92179 C36.7441848,177.329603 30.0735666,178.612687 26.0965285,182.33266" id="Fill-57" fill="#FFFFFF"></path>
                <path d="M45.9803363,171.17233 C45.9803363,171.17233 52.009786,176.046855 48.930608,180.665061 C45.8521773,185.283268 43.671233,185.539586 43.671233,185.539586 C43.671233,185.539586 60.8609749,180.536529 45.9803363,171.17233" id="Fill-59" fill="#FFFFFF"></path>
                <path d="M44.9540931,130.891481 C44.9540931,130.891481 81.3863621,150.390326 92.4184952,162.192534 C103.451002,173.994368 125.002259,193.749905 133.98198,192.210503 C142.961702,190.671101 143.218393,189.131698 143.218393,189.131698 C143.218393,189.131698 134.238672,192.723512 125.515268,185.539511 C116.792238,178.356257 94.214589,158.344029 79.0772588,147.824905 C63.9399287,137.305781 51.6247113,132.687575 44.9540931,130.891481" id="Fill-61" fill="#FFFFFF"></path>
                <path d="M68.8146026,159.113618 C68.8146026,159.113618 73.689127,172.711546 70.0973132,178.612836 C66.5054993,184.51338 87.287055,168.350031 87.287055,165.014535 C87.287055,161.679039 82.4125306,153.72571 79.8467357,154.752103 C77.2813145,155.778122 83.8555333,162.03213 82.3161311,163.667558 C80.7771026,165.302986 78.9488757,162.41698 78.5640251,160.781179 C78.1791746,159.145751 75.7736719,160.492354 76.6397724,162.224555 C77.505873,163.956382 80.5843037,166.938787 78.7564504,168.86304 C76.9285971,170.787293 75.0039708,165.014535 72.9836923,160.781179 C70.9634137,156.548196 72.9836923,163.763584 69.1351868,159.24215" id="Fill-63" fill="#FFFFFF"></path>
                <path d="M30.2656929,183.872099 C30.2656929,183.872099 27.8605639,183.198424 27.0908628,186.085177 C26.3211617,188.971182 29.6884171,190.70301 32.670822,190.125734 C35.6536005,189.548458 36.5193274,184.834226 31.7090693,183.7757 C31.7090693,183.7757 31.035394,183.727874 31.6608696,184.25695 C32.2863451,184.786026 34.3066236,187.528179 32.8636209,188.490306 C31.4202446,189.452432 27.8123641,188.249681 28.2932405,186.181202 C28.7744905,184.112724 30.6505435,184.352976 30.2656929,183.872099" id="Fill-65" fill="#FFFFFF"></path>
                <path d="M155.758057,185.539623 C155.758057,185.539623 153.352928,184.866321 152.582853,187.7527 C151.813152,190.638706 155.180781,192.370907 158.163186,191.793257 C161.145965,191.215982 162.011692,186.501749 157.20106,185.443597 C157.20106,185.443597 156.527758,185.395397 157.15286,185.924474 C157.778336,186.45355 159.798614,189.195703 158.355611,190.157829 C156.912609,191.120329 153.304728,189.917578 153.785605,187.8491 C154.266855,185.780622 156.142534,186.020873 155.758057,185.539623" id="Fill-67" fill="#FFFFFF"></path>
                <path d="M117.048594,133.553339 C117.048594,133.553339 125.900156,138.652796 127.728383,138.556396 C129.556236,138.459997 137.926549,131.244236 138.792276,129.031532 C139.65875,126.818454 137.060822,125.471478 135.232595,125.183026 C133.404742,124.894202 134.174443,125.856328 134.655319,127.684555 C135.136569,129.512408 132.923492,130.186084 131.86534,129.319983 C130.806814,128.454256 128.016834,129.031532 128.20926,130.570934 C128.401685,132.110336 131.480489,136.151267 127.631984,135.381566 C123.783478,134.611865 123.013777,131.725486 120.319823,132.591213 C117.62587,133.457313 116.952568,134.034589 116.952568,134.034589" id="Fill-69" fill="#FFFFFF"></path>
                <path d="M51.0474728,125.182877 C51.0474728,125.182877 67.2111957,129.608658 69.7127242,131.917762 C72.2138791,134.226865 70.6744769,140.76895 73.560856,140.191675 C76.4472351,139.614772 71.2521264,134.41929 76.8320856,135.766267 C82.4124185,137.113244 87.6079008,139.037497 88.5700272,141.3466 C89.5321535,143.655703 85.4912228,149.428088 89.5321535,148.850812 C93.5730842,148.273536 92.4185326,144.425404 95.3049117,144.810255 C98.1912908,145.195105 92.8033832,153.469392 96.8443139,155.008794 C100.884871,156.548196 97.9988655,148.65876 102.039796,149.812938 C106.080727,150.96749 100.115543,154.62357 102.039796,155.58607 C103.964049,156.548196 104.926175,153.084168 107.234905,154.046668 C109.544008,155.008794 119.935346,159.819426 121.28195,162.897857 C122.6293,165.976661 121.859226,167.901287 124.745978,164.822109 C127.631984,161.743305 130.903213,159.24215 141.48623,158.472075 C152.069993,157.702748 158.612079,158.280024 159.574579,170.210017 C160.536705,182.140384 156.495401,170.979718 150.915442,168.670615 C145.335109,166.361512 135.90627,165.014535 134.366868,170.787293 C132.827466,176.560051 132.635041,182.332809 134.751719,184.064263 C136.868397,185.796464 128.786535,187.720717 126.092582,179.831281 C123.398628,171.941844 125.323254,171.556994 122.436501,170.979718 C119.550122,170.402442 117.433444,176.944901 117.433444,172.326695 C117.433444,167.708488 114.73949,166.553937 112.237962,168.670615 C109.736807,170.787293 84.1442459,146.734134 58.1672079,133.649589 C58.1672079,133.649589 52.9717255,129.801084 47.5838179,128.454107 C42.1959103,127.10713 43.7353125,123.258624 51.0474728,125.182877" id="Fill-71" fill="#FFFFFF"></path>
                <path d="M49.5080333,121.334446 C49.5080333,121.334446 57.0126189,112.098033 64.5172045,114.214711 C72.0214164,116.331389 63.7475034,117.10109 61.0535496,118.832918 C58.3595958,120.564745 65.0944803,120.37232 69.135411,119.217768 C73.1763417,118.063217 74.5233186,123.451124 68.1732846,124.990526 C61.8232507,126.529929 76.639623,127.492055 84.1442086,122.681423 C91.6487942,117.870791 66.6338825,112.098033 61.0535496,111.713183 C55.4732167,111.328332 51.432286,115.369263 49.5080333,121.334446" id="Fill-73" fill="#FFFFFF"></path>
                <path d="M42.7731861,122.296647 C42.7731861,122.296647 47.0065421,116.716315 48.7383696,115.176912 C50.470197,113.63751 41.0413587,110.687238 38.1549796,114.407211 C35.2689742,118.127558 39.8868071,121.719372 40.1434986,121.783264 C40.3998166,121.847531 42.0677514,121.783264 40.2716576,119.217843 C38.4759375,116.652422 43.2865693,113.765669 45.9801495,114.663903 C48.6741033,115.561763 42.5807609,118.19145 42.7731861,122.039956" id="Fill-75" fill="#FFFFFF"></path>
                <path d="M132.699232,143.976437 C132.699232,143.976437 157.585611,156.034589 160.15178,160.909487 C162.717201,165.784385 161.9475,175.277116 161.177799,178.356294 C160.408098,181.434725 184.01214,157.317673 132.699232,143.976437" id="Fill-77" fill="#FFFFFF"></path>
                <path d="M90.301892,122.488923 C90.301892,122.488923 127.182904,142.180567 129.941124,143.078427 C132.699344,143.976287 118.780832,149.428088 117.818706,145.964806 C116.856206,142.501151 117.433482,138.845071 114.354677,138.267796 C111.276247,137.69052 106.465615,137.498094 105.311063,133.842014 C104.156512,130.185934 100.884908,129.993509 96.651926,129.801084 C92.41857,129.608658 97.0364029,127.49198 90.301892,122.488923" id="Fill-79" fill="#FFFFFF"></path>
                <path d="M148.734423,185.283118 C148.734423,185.283118 150.145292,182.204688 156.174742,181.947622 C162.204192,181.691304 165.924538,185.53981 165.539688,189.003465 C165.154463,192.46712 163.486902,194.391372 161.43449,194.391372 C159.381705,194.391372 147.19502,195.417391 147.451338,189.388315 C147.451338,189.388315 143.603207,194.006522 152.711461,196.956793 C161.819341,199.907439 166.693865,196.956793 167.848417,193.493512 C169.002969,190.029484 168.746651,184.385258 164.641454,181.434613 C160.53663,178.484341 150.402357,171.941882 148.862955,171.68519 C147.323553,171.428872 155.148723,177.971332 156.944817,179.125883 C158.740537,180.280061 149.247432,178.740659 148.734423,185.283118" id="Fill-81" fill="#FFFFFF"></path>
                <path d="M138.343607,179.767164 C138.888376,180.246546 145.399076,186.951165 145.399076,188.233502 C145.399076,189.516586 136.419355,179.767164 135.778186,178.997089 C135.136644,178.227762 135.136644,176.944677 138.343607,179.767164" id="Fill-83" fill="#FFFFFF"></path>
                <path d="M69.8411821,104.754113 C69.8411821,104.754113 58.5998098,94.1546569 61.8116304,83.8769056 C61.8116304,83.8769056 51.2121739,95.7609409 69.8411821,104.754113" id="Fill-85" fill="#FFFFFF"></path>
                <path d="M119.518512,103.576471 C119.518512,103.576471 128.511685,96.7242629 128.297588,81.5215455 C128.297588,81.5215455 134.507133,97.3665523 119.518512,103.576471" id="Fill-87" fill="#FFFFFF"></path>
            </g>
        </g>
    </g>
</svg>